<svg xmlns="http://www.w3.org/2000/svg" viewBox="0 0 280 64" fill="none">
  
  <rect x="0" y="8" width="48" height="48" rx="12" fill="#0E1A2B"></rect>
  <path d="M10 22 Q10 19 13 19 L22 19 Q24 19 24 21 L24 45 Q24 43 22 43 L13 43 Q10 43 10 46 Z" fill="#F5EFE3"></path>
  <path d="M38 22 Q38 19 35 19 L26 19 Q24 19 24 21 L24 45 Q24 43 26 43 L35 43 Q38 43 38 46 Z" fill="#F5EFE3"></path>
  <line x1="14" y1="26" x2="20" y2="26" stroke="#C9BFA9" stroke-width="1.2" stroke-linecap="round"></line>
  <line x1="14" y1="30" x2="20" y2="30" stroke="#C9BFA9" stroke-width="1.2" stroke-linecap="round"></line>
  <line x1="28" y1="26" x2="34" y2="26" stroke="#C9BFA9" stroke-width="1.2" stroke-linecap="round"></line>
  <line x1="28" y1="30" x2="34" y2="30" stroke="#C9BFA9" stroke-width="1.2" stroke-linecap="round"></line>
  <circle cx="24" cy="15" r="3" fill="#E8A33D"></circle>

  
  <text x="62" y="44" font-family="&#39;Plus Jakarta Sans&#39;, sans-serif" font-weight="800" font-size="34" letter-spacing="-1" fill="#0E1A2B">Lum<tspan fill="#E8A33D">i</tspan>o</text>
</svg>